<?xml version="1.0" encoding="UTF-8"?>
<svg version="1.1" xmlns="http://www.w3.org/2000/svg" width="168" height="169">
<path d="M0 0 C55.44 0 110.88 0 168 0 C168 55.77 168 111.54 168 169 C112.56 169 57.12 169 0 169 C0 113.23 0 57.46 0 0 Z " fill="#040304" transform="translate(0,0)"/>
<path d="M0 0 C55.44 0 110.88 0 168 0 C168 55.77 168 111.54 168 169 C112.56 169 57.12 169 0 169 C0 113.23 0 57.46 0 0 Z M74.30078125 15.0546875 C55.71047506 15.81713673 40.95984744 27.29914706 28.75 40.4375 C15.15589943 56.22419744 11.84522892 73.87867674 12.76171875 94.13964844 C14.29289935 112.52009102 24.1500094 127.4181992 37 140 C37.66386719 140.65097656 38.32773437 141.30195313 39.01171875 141.97265625 C44.09394239 146.60470623 49.99430279 151 57 151 C57 151.66 57 152.32 57 153 C69.53300152 157.11888023 80.6673986 158.70308471 93.8203125 158.48828125 C95.54335487 158.47892051 97.26641083 158.4718199 98.98947144 158.46684265 C103.45797468 158.44802862 107.92562544 158.39915983 112.39379883 158.34332275 C116.97986325 158.29156709 121.56606957 158.26921019 126.15234375 158.24414062 C135.10193082 158.19100711 144.05089371 158.10601839 153 158 C153 156.35 153 154.7 153 153 C140.13 153 127.26 153 114 153 C114.33 151.68 114.66 150.36 115 149 C116.97372272 148.25914706 118.97979835 147.60268545 121 147 C138.75280237 136.10274667 149.49252032 119.74918287 154.8125 99.75 C158.84436643 80.3089889 154.53475362 62.51896341 144 46 C133.79915134 30.81346048 117.25026612 19.20756207 99.36914062 15.38818359 C95.48841419 14.75232673 91.67350691 14.74562895 87.75 14.8125 C86.92298584 14.8225708 86.09597168 14.8326416 85.24389648 14.84301758 C81.595767 14.90077815 77.94903475 15.00075345 74.30078125 15.0546875 Z " fill="#AB282B" transform="translate(0,0)"/>
<path d="M0 0 C0.85142578 -0.01224609 1.70285156 -0.02449219 2.58007812 -0.03710938 C8.3780944 -0.05035694 13.59164253 0.69438963 19.1875 2.1875 C20.10660156 2.42210937 21.02570313 2.65671875 21.97265625 2.8984375 C41.36714683 8.55377781 56.59528081 21.73694954 66.8203125 38.93359375 C75.1457474 54.35029105 77.94151411 72.39199601 74 89.5625 C73.43081592 91.44841406 72.82593512 93.3238898 72.1875 95.1875 C71.69443359 96.75177734 71.69443359 96.75177734 71.19140625 98.34765625 C68.19014136 107.06067093 63.73024117 113.9385585 58.1875 121.1875 C57.62160156 121.950625 57.05570313 122.71375 56.47265625 123.5 C52.31830444 128.70055777 47.28869409 132.02025504 41.6640625 135.5234375 C39.10055771 136.9505654 39.10055771 136.9505654 38.1875 139.1875 C49.4075 139.1875 60.6275 139.1875 72.1875 139.1875 C72.1875 142.1575 72.1875 145.1275 72.1875 148.1875 C62.79817577 148.23415647 53.4088924 148.26953646 44.01947689 148.29112434 C39.65804339 148.30149344 35.2966901 148.31552447 30.93530273 148.33837891 C26.71423636 148.36035572 22.49324639 148.37212007 18.27212715 148.37725449 C16.67405561 148.38090624 15.07598751 148.38803477 13.47794914 148.39896011 C0.56573526 148.48360239 -12.83108585 148.55127261 -24.8125 143.1875 C-26.21242188 142.66349609 -26.21242188 142.66349609 -27.640625 142.12890625 C-34.70112491 139.42356395 -40.20920499 136.25257113 -45.8125 131.1875 C-46.69808594 130.39472656 -47.58367188 129.60195312 -48.49609375 128.78515625 C-63.15088153 114.94339415 -71.80305706 97.60335889 -73.05078125 77.3125 C-73.60089775 56.97538078 -66.59589738 38.18089909 -52.82421875 23.171875 C-46.77881431 16.96753979 -39.49824344 11.16988191 -31.8125 7.1875 C-30.4925 7.1875 -29.1725 7.1875 -27.8125 7.1875 C-27.8125 6.5275 -27.8125 5.8675 -27.8125 5.1875 C-25.93949975 4.53588988 -24.0639945 3.89147805 -22.1875 3.25 C-21.14335938 2.89035156 -20.09921875 2.53070313 -19.0234375 2.16015625 C-12.65079482 0.22975719 -6.60468124 0.00493255 0 0 Z M-8.51171875 3.2421875 C-27.10202494 4.00463673 -41.85265256 15.48664706 -54.0625 28.625 C-67.65660057 44.41169744 -70.96727108 62.06617674 -70.05078125 82.32714844 C-68.51960065 100.70759102 -58.6624906 115.6056992 -45.8125 128.1875 C-45.14863281 128.83847656 -44.48476563 129.48945313 -43.80078125 130.16015625 C-38.71855761 134.79220623 -32.81819721 139.1875 -25.8125 139.1875 C-25.8125 139.8475 -25.8125 140.5075 -25.8125 141.1875 C-13.27949848 145.30638023 -2.1451014 146.89058471 11.0078125 146.67578125 C12.73085487 146.66642051 14.45391083 146.6593199 16.17697144 146.65434265 C20.64547468 146.63552862 25.11312544 146.58665983 29.58129883 146.53082275 C34.16736325 146.47906709 38.75356957 146.45671019 43.33984375 146.43164062 C52.28943082 146.37850711 61.23839371 146.29351839 70.1875 146.1875 C70.1875 144.5375 70.1875 142.8875 70.1875 141.1875 C57.3175 141.1875 44.4475 141.1875 31.1875 141.1875 C31.5175 139.8675 31.8475 138.5475 32.1875 137.1875 C34.16122272 136.44664706 36.16729835 135.79018545 38.1875 135.1875 C55.94030237 124.29024667 66.68002032 107.93668287 72 87.9375 C76.03186643 68.4964889 71.72225362 50.70646341 61.1875 34.1875 C50.98665134 19.00096048 34.43776612 7.39506207 16.55664062 3.57568359 C12.67591419 2.93982673 8.86100691 2.93312895 4.9375 3 C4.11048584 3.0100708 3.28347168 3.0201416 2.43139648 3.03051758 C-1.216733 3.08827815 -4.86346525 3.18825345 -8.51171875 3.2421875 Z " fill="#94817D" transform="translate(82.8125,11.8125)"/>
<path d="M0 0 C2.875 1.25 2.875 1.25 5 3 C5.86625 3.61875 6.7325 4.2375 7.625 4.875 C11.02904443 7.92072397 12.77572958 10.52355309 13.46875 15.0859375 C13.57226379 25.98076377 13.57226379 25.98076377 9.40625 30.6328125 C8.71015625 31.30957031 8.71015625 31.30957031 8 32 C6.9171875 33.2065625 6.9171875 33.2065625 5.8125 34.4375 C0.22799627 37.54000207 -7.15011284 36.59941134 -13.1796875 34.890625 C-17.52731436 32.76345993 -20.01675162 28.69833811 -22.375 24.625 C-23.74246092 18.88166413 -23.94576125 13.98477039 -20.9375 8.75 C-15.29727207 0.89452934 -9.67376383 -1.38196626 0 0 Z " fill="#A92C2A" transform="translate(128,90)"/>
<path d="M0 0 C4.76168633 1.82095257 8.3405215 5.00205439 10.95703125 9.34765625 C12.99857249 14.30697547 12.4247136 19.86070845 10.65234375 24.8046875 C7.57138521 29.37300534 3.96554972 33.32800054 -1.16015625 35.4921875 C-6.11847744 36.17437263 -9.94331704 36.08912749 -14.47265625 33.8671875 C-20.20217728 28.80388985 -24.08703973 24.02705722 -24.59765625 16.1796875 C-24.44699424 9.72274415 -21.05334119 5.78695713 -17.09765625 0.9921875 C-11.82162169 -1.70195781 -5.70208099 -1.34045304 0 0 Z " fill="#A5292B" transform="translate(51.16015625,46.5078125)"/>
<path d="M0 0 C4.80890771 2.92306155 8.39104505 6.54813516 10.1875 11.9375 C10.57780662 17.79209927 10.21556352 21.73301582 7.1875 26.9375 C2.4287214 31.81305844 -1.12617838 35.06995886 -8.0625 35.25 C-13.17442185 35.18326473 -15.96014678 34.51468513 -19.8125 30.9375 C-24.52326381 25.28971777 -26.19329342 20.83041648 -26.0859375 13.43359375 C-25.67379157 9.67129015 -24.30375907 7.74815126 -21.8125 4.9375 C-21.1009375 4.09832031 -21.1009375 4.09832031 -20.375 3.2421875 C-14.47382334 -2.85758645 -7.74143918 -2.15745026 0 0 Z " fill="#AB2829" transform="translate(91.8125,24.0625)"/>
<path d="M0 0 C5.3055732 2.51950234 9.57970327 6.65517805 12 12 C12.80560215 18.19480278 12.7309219 23.77670934 9 29 C3.40974784 34.60552607 -1.53137115 35.45661212 -9.29370117 35.6003418 C-12.57526814 35.51326278 -14.70274877 35.19347158 -17.47265625 33.390625 C-19.27804514 31.35141717 -20.67069991 29.37311291 -22 27 C-22.474375 26.195625 -22.94875 25.39125 -23.4375 24.5625 C-24.6984934 18.81797451 -24.93956956 13.97399605 -21.9375 8.75 C-16.15751094 0.72223742 -9.95491864 -1.86406843 0 0 Z " fill="#A62A2B" transform="translate(51,90)"/>
<path d="M0 0 C5.1283054 2.48620246 8.50341503 5.87426803 11 11 C11.93324435 16.66032985 12.34750152 22.49644526 9.5703125 27.65625 C6.68176484 31.07787727 4.5057613 33.23242562 0 34 C0 34.66 0 35.32 0 36 C-10.58672377 36.61670236 -10.58672377 36.61670236 -15.4375 34.5 C-20.20481858 29.84895748 -23.65317549 24.53760999 -24.3125 17.8125 C-23.78301979 11.35284148 -21.36338265 6.80612005 -16.5 2.5 C-11.33110141 -1.01022217 -6.02110531 -1.2203851 0 0 Z " fill="#A22828" transform="translate(90,113)"/>
<path d="M0 0 C4.92343989 -0.35382519 8.05254684 0.02205108 12.1171875 2.94140625 C15.87791496 6.22349567 18.39919119 8.6412835 18.953125 13.80078125 C19.14716458 19.32344619 19.00378215 23.64306529 15.6796875 28.25390625 C12.65389998 31.48888402 10.23549553 34.05529246 5.7421875 34.62890625 C4.72125 34.44328125 4.72125 34.44328125 3.6796875 34.25390625 C4.3396875 33.59390625 4.9996875 32.93390625 5.6796875 32.25390625 C5.6796875 23.47085147 1.4834662 14.69736139 -4.6953125 8.50390625 C-5.5615625 7.76140625 -6.4278125 7.01890625 -7.3203125 6.25390625 C-9.6800481 7.19780049 -11.04719196 7.82251091 -12.42578125 10 C-14.13280958 14.30111506 -13.96052779 18.72118201 -13.3203125 23.25390625 C-11.47970839 27.24660132 -8.99112569 29.80669745 -5.3203125 32.25390625 C-2.99922581 32.96203439 -0.66654103 33.63414777 1.6796875 34.25390625 C1.6796875 34.58390625 1.6796875 34.91390625 1.6796875 35.25390625 C-9.50499091 34.11648133 -9.50499091 34.11648133 -13.12109375 30.40625 C-16.85135956 24.94097683 -18.52191297 20.86877751 -17.3203125 14.25390625 C-15.63286655 8.7228334 -12.98894588 4.64927598 -8.3203125 1.25390625 C-5.48562304 0.3519596 -2.93220069 0.32086371 0 0 Z " fill="#AA292A" transform="translate(122.3203125,45.74609375)"/>
<path d="M0 0 C2.53497373 2.51229955 5.03684644 5.03946586 7.47265625 7.6484375 C14.25657997 14.79048691 21.97597527 22.05680845 32 24 C32 24.66 32 25.32 32 26 C32.71285156 26.12117188 33.42570312 26.24234375 34.16015625 26.3671875 C35.11792969 26.53476563 36.07570312 26.70234375 37.0625 26.875 C38.00222656 27.03742188 38.94195312 27.19984375 39.91015625 27.3671875 C43 28 43 28 46.19593811 29.0196228 C50.18616217 30.04797744 53.86757053 30.3063095 57.95483398 30.31884766 C59.09753502 30.33391609 59.09753502 30.33391609 60.26332092 30.34928894 C62.75757152 30.37994578 65.25171566 30.39710687 67.74609375 30.4140625 C69.48487757 30.43278827 71.22365244 30.45236272 72.9624176 30.4727478 C77.52105414 30.52392625 82.07972008 30.56362815 86.63848877 30.60089111 C91.29747713 30.64102065 95.95634463 30.69207204 100.61523438 30.7421875 C109.74340451 30.83877747 118.87164311 30.92323609 128 31 C128 29.35 128 27.7 128 26 C115.13 26 102.26 26 89 26 C90 22 90 22 92.40625 20.359375 C93.93765625 19.56273437 93.93765625 19.56273437 95.5 18.75 C101.41200002 15.48991386 106.17305028 11.69286778 111 7 C111.495 8.485 111.495 8.485 112 10 C108.15498332 14.22951835 103.85938105 17.28020584 99.109375 20.44921875 C96.89487675 21.83046812 96.89487675 21.83046812 96 24 C107.22 24 118.44 24 130 24 C130 26.97 130 29.94 130 33 C120.61067577 33.04665647 111.2213924 33.08203646 101.83197689 33.10362434 C97.47054339 33.11399344 93.1091901 33.12802447 88.74780273 33.15087891 C84.52673636 33.17285572 80.30574639 33.18462007 76.08462715 33.18975449 C74.48655561 33.19340624 72.88848751 33.20053477 71.29044914 33.21146011 C58.37823526 33.29610239 44.98141415 33.36377261 33 28 C32.06671875 27.65066406 31.1334375 27.30132812 30.171875 26.94140625 C18.49916638 22.46882317 8.94871457 14.62362229 1 5 C0.1875 2.1640625 0.1875 2.1640625 0 0 Z " fill="#5B5154" transform="translate(25,127)"/>
<path d="M0 0 C8.22674521 3.63632939 11.90325845 11.1967402 15.15234375 19.16796875 C15.99440616 21.98131089 16.16153829 24.08741577 16 27 C16 27.99 16 28.98 16 30 C13.67404054 31.16297973 12.21276769 31.16600691 9.625 31.1875 C8.85414062 31.20167969 8.08328125 31.21585938 7.2890625 31.23046875 C4.78165112 30.97801607 3.16738098 30.25193467 1 29 C3 28 3 28 4 28 C3.071875 27.278125 2.14375 26.55625 1.1875 25.8125 C-2.44109966 22.71575183 -4.70449032 20.38231874 -5.31640625 15.44921875 C-5.57498241 9.28509664 -5.06709283 5.68331901 -1 1 C-0.67 0.67 -0.34 0.34 0 0 Z " fill="#211F1F" transform="translate(113,51)"/>
<path d="M0 0 C1.09570312 0.00902344 2.19140625 0.01804687 3.3203125 0.02734375 C4.16335937 0.03894531 5.00640625 0.05054687 5.875 0.0625 C6.38241164 5.66152496 4.74991729 9.22629637 2.25 14.0625 C1.91871094 14.74828125 1.58742188 15.4340625 1.24609375 16.140625 C-1.21772955 21.01248693 -4.10262687 24.37436418 -8.125 28.0625 C-11.3236478 26.99628407 -12.55300836 25.98120715 -14.3125 23.12890625 C-16.12117083 18.52896938 -16.08446025 13.85980126 -15.125 9.0625 C-11.1834298 2.45909019 -7.59920287 -0.08084258 0 0 Z " fill="#222120" transform="translate(123.125,92.9375)"/>
<path d="M0 0 C4.67487569 1.64486367 7.42562446 3.74237891 10 8 C10.25 11.3125 10.25 11.3125 10 14 C7.01000015 15.71636303 4.84705779 16.25574986 1.41015625 16.265625 C0.10981445 16.26949219 0.10981445 16.26949219 -1.21679688 16.2734375 C-2.56354492 16.26183594 -2.56354492 16.26183594 -3.9375 16.25 C-5.27844727 16.26160156 -5.27844727 16.26160156 -6.64648438 16.2734375 C-11.19136978 16.25994118 -14.88117468 16.16689766 -19 14 C-18.71334273 8.123526 -16.08745753 4.93566865 -12 1 C-8.30506957 -0.84746521 -4.04115396 -0.3419438 0 0 Z " fill="#212020" transform="translate(88,116)"/>
<path d="M0 0 C1.05574219 0.00580078 1.05574219 0.00580078 2.1328125 0.01171875 C7.11262916 0.09471569 11.41607427 0.68035809 16.125 2.25 C15.56854517 8.23188944 13.50882968 11.15511937 9.0625 15.0625 C4.3821195 16.95456871 0.08069314 17.21072712 -4.875 16.25 C-8.80523506 14.131797 -12.07196582 11.53555882 -13.5859375 7.2265625 C-13.875 5.3125 -13.875 5.3125 -13.875 2.25 C-9.19187966 0.41176585 -4.98035077 -0.06602738 0 0 Z " fill="#211F1F" transform="translate(82.875,39.75)"/>
<path d="M0 0 C6.93089984 -0.50203701 11.36762431 -0.25301838 17 4 C20.92348257 9.36025083 20.82320505 14.57900058 20 21 C18.92627988 23.51464323 17.83722716 24.93311945 16 27 C11.77816021 26.24804141 10.22236174 24.54520522 7.59375 21.29296875 C3.09888236 14.8260881 -1.09945733 8.06268709 0 0 Z " fill="#21201F" transform="translate(40,93)"/>
<path d="M0 0 C1.875 0.0625 1.875 0.0625 4 1 C7.32172477 5.7453211 7.86773399 10.39385341 7 16 C5.66857711 19.90400272 3.72590955 22.46420962 0.375 24.9375 C-4.14645712 26.36092169 -8.30050168 26.25076374 -13 26 C-12.70780276 17.08798427 -9.55105659 9.29421452 -3.1875 2.875 C-2.465625 2.25625 -1.74375 1.6375 -1 1 C-0.67 0.67 -0.34 0.34 0 0 Z " fill="#1F1E1E" transform="translate(53,52)"/>
<path d="M0 0 C4.76168633 1.82095257 8.3405215 5.00205439 10.95703125 9.34765625 C12.99857249 14.30697547 12.4247136 19.86070845 10.65234375 24.8046875 C7.57138521 29.37300534 3.96554972 33.32800054 -1.16015625 35.4921875 C-6.11847744 36.17437263 -9.94331704 36.08912749 -14.47265625 33.8671875 C-20.20217728 28.80388985 -24.08703973 24.02705722 -24.59765625 16.1796875 C-24.44699424 9.72274415 -21.05334119 5.78695713 -17.09765625 0.9921875 C-11.82162169 -1.70195781 -5.70208099 -1.34045304 0 0 Z M-18.91015625 7.5546875 C-22.21952497 11.87525222 -22.60194036 14.01406456 -22.16015625 19.4921875 C-20.59647613 23.71876843 -18.68413066 27.59109476 -15.16015625 30.4921875 C-9.6523966 32.45761211 -3.28026612 32.15962949 2.21484375 30.4296875 C6.27523491 27.43273212 8.42335022 24.18301648 9.1875 19.24609375 C9.41172134 13.46508264 8.1324224 9.28315281 4.40234375 4.7421875 C-3.3123315 -1.4295527 -12.76924341 0.43957885 -18.91015625 7.5546875 Z " fill="#786E6A" transform="translate(51.16015625,46.5078125)"/>
<path d="M0 0 C2.875 1.25 2.875 1.25 5 3 C5.86625 3.61875 6.7325 4.2375 7.625 4.875 C11.02904443 7.92072397 12.77572958 10.52355309 13.46875 15.0859375 C13.57226379 25.98076377 13.57226379 25.98076377 9.40625 30.6328125 C8.71015625 31.30957031 8.71015625 31.30957031 8 32 C6.9171875 33.2065625 6.9171875 33.2065625 5.8125 34.4375 C0.22799627 37.54000207 -7.15011284 36.59941134 -13.1796875 34.890625 C-17.52731436 32.76345993 -20.01675162 28.69833811 -22.375 24.625 C-23.74246092 18.88166413 -23.94576125 13.98477039 -20.9375 8.75 C-15.29727207 0.89452934 -9.67376383 -1.38196626 0 0 Z M-18 9 C-21.12705294 13.69057941 -20.69469263 18.51334598 -20 24 C-18.37830017 27.90012109 -16.46016512 30.27724268 -12.6640625 32.15625 C-6.86955208 33.99146151 -1.0234566 33.99333324 4.4375 31.3125 C9.11416682 27.40244161 9.11416682 27.40244161 11.34765625 21.92578125 C11.57619204 16.07327776 10.61563773 11.0209851 6.6640625 6.45703125 C2.21894148 2.58652344 -2.36285332 2.20674976 -8.1171875 2.4375 C-12.59266785 3.31076446 -15.17320879 5.5215234 -18 9 Z " fill="#686868" transform="translate(128,90)"/>
<path d="M0 0 C5.1283054 2.48620246 8.50341503 5.87426803 11 11 C11.93324435 16.66032985 12.34750152 22.49644526 9.5703125 27.65625 C6.68176484 31.07787727 4.5057613 33.23242562 0 34 C0 34.66 0 35.32 0 36 C-10.58672377 36.61670236 -10.58672377 36.61670236 -15.4375 34.5 C-20.20481858 29.84895748 -23.65317549 24.53760999 -24.3125 17.8125 C-23.78301979 11.35284148 -21.36338265 6.80612005 -16.5 2.5 C-11.33110141 -1.01022217 -6.02110531 -1.2203851 0 0 Z M-19 9 C-21.7335626 13.45809203 -21.64360259 17.91553957 -21 23 C-18.66907123 27.84115976 -15.85901474 30.70301121 -11 33 C-6.35524688 33.81388423 -2.02858113 34.11896824 2.1953125 31.7890625 C5.98423631 28.66597467 8.62850041 25.61777619 9.3359375 20.6328125 C9.42548332 14.88397057 8.9484305 11.49682363 5 7 C0.57394957 3.11044053 -3.68526458 2.54009696 -9.421875 2.58203125 C-13.70352792 3.27617801 -16.32911891 5.69174955 -19 9 Z " fill="#74605D" transform="translate(90,113)"/>
<path d="M0 0 C5.3055732 2.51950234 9.57970327 6.65517805 12 12 C12.80560215 18.19480278 12.7309219 23.77670934 9 29 C3.40974784 34.60552607 -1.53137115 35.45661212 -9.29370117 35.6003418 C-12.57526814 35.51326278 -14.70274877 35.19347158 -17.47265625 33.390625 C-19.27804514 31.35141717 -20.67069991 29.37311291 -22 27 C-22.474375 26.195625 -22.94875 25.39125 -23.4375 24.5625 C-24.6984934 18.81797451 -24.93956956 13.97399605 -21.9375 8.75 C-16.15751094 0.72223742 -9.95491864 -1.86406843 0 0 Z M-17 7 C-18.175625 7.99 -18.175625 7.99 -19.375 9 C-21.98449852 13.81753573 -21.73869254 18.64810013 -21 24 C-19.64546449 27.31038352 -17.52023401 29.47976599 -15 32 C-9.3979501 33.87536434 -3.17299045 33.72433015 2.375 31.875 C5.77861729 29.44384479 7.24622296 27.84481888 9 24 C9.75661264 18.37172843 9.74883445 13.64167553 7.375 8.4375 C3.28890898 4.24388027 -0.21483802 2.83177931 -6 2.5625 C-10.72421273 2.71855508 -13.38952749 3.81934565 -17 7 Z " fill="#737170" transform="translate(51,90)"/>
<path d="M0 0 C4.80890771 2.92306155 8.39104505 6.54813516 10.1875 11.9375 C10.57780662 17.79209927 10.21556352 21.73301582 7.1875 26.9375 C2.4287214 31.81305844 -1.12617838 35.06995886 -8.0625 35.25 C-13.17442185 35.18326473 -15.96014678 34.51468513 -19.8125 30.9375 C-24.52326381 25.28971777 -26.19329342 20.83041648 -26.0859375 13.43359375 C-25.67379157 9.67129015 -24.30375907 7.74815126 -21.8125 4.9375 C-21.1009375 4.09832031 -21.1009375 4.09832031 -20.375 3.2421875 C-14.47382334 -2.85758645 -7.74143918 -2.15745026 0 0 Z M-19.5078125 5.234375 C-23.5235987 10.47653903 -23.41450525 15.52566633 -22.8125 21.9375 C-21.12287118 26.25544032 -18.01213095 29.85889478 -13.8125 31.9375 C-8.43006878 32.95228718 -3.48576196 32.86847597 1.1875 29.8125 C4.90087929 26.61560991 6.85509026 23.48458962 7.5 18.54296875 C7.71026539 14.16024956 7.42977227 11.43999063 5.5 7.4375 C3.12211942 4.86681829 1.52920288 3.8657508 -1.8125 2.9375 C-1.8125 2.2775 -1.8125 1.6175 -1.8125 0.9375 C-9.02595619 0.2978832 -14.15368256 -0.03984256 -19.5078125 5.234375 Z " fill="#776762" transform="translate(91.8125,24.0625)"/>
<path d="M0 0 C8.17862485 3.2351005 13.12200401 14.16405497 16.6796875 21.7265625 C23.14639764 37.7594119 24.65800806 55.48411412 19 72 C18.67128906 73.04285156 18.34257812 74.08570312 18.00390625 75.16015625 C14.77499942 84.53404148 9.5313018 95.38984689 1 101 C1.60756901 96.86853071 3.95371984 93.8650791 6.25 90.5 C17.04298636 74.13127751 21.92340812 55.38378397 17.96972656 35.94091797 C15.14064046 23.8746599 9.28724023 13.05535965 1.25 3.63671875 C0 2 0 2 0 0 Z " fill="#877B7A" transform="translate(136,35)"/>
<path d="M0 0 C4.92343989 -0.35382519 8.05254684 0.02205108 12.1171875 2.94140625 C15.87791496 6.22349567 18.39919119 8.6412835 18.953125 13.80078125 C19.14716458 19.32344619 19.00378215 23.64306529 15.6796875 28.25390625 C12.65389998 31.48888402 10.23549553 34.05529246 5.7421875 34.62890625 C4.72125 34.44328125 4.72125 34.44328125 3.6796875 34.25390625 C5.41084422 32.3405225 6.92309355 31.11394777 9.1796875 29.81640625 C12.83827419 27.52978957 14.32614627 25.31452994 15.6796875 21.25390625 C16.06742466 16.5235129 16.16086622 14.19844226 13.9921875 9.94140625 C11.69555876 7.27235122 9.80720993 5.81766746 6.6796875 4.25390625 C6.0196875 3.92390625 5.3596875 3.59390625 4.6796875 3.25390625 C-0.20111303 2.55806911 -4.11494356 2.66656324 -8.2578125 5.50390625 C-11.60983641 8.07141393 -13.08178381 10.61433534 -13.69140625 14.8046875 C-13.85762651 21.71749462 -13.0183715 25.1188185 -8.3203125 30.25390625 C-5.03567591 32.44366398 -2.11334975 33.25197188 1.6796875 34.25390625 C1.6796875 34.58390625 1.6796875 34.91390625 1.6796875 35.25390625 C-9.50499091 34.11648133 -9.50499091 34.11648133 -13.12109375 30.40625 C-16.85135956 24.94097683 -18.52191297 20.86877751 -17.3203125 14.25390625 C-15.63286655 8.7228334 -12.98894588 4.64927598 -8.3203125 1.25390625 C-5.48562304 0.3519596 -2.93220069 0.32086371 0 0 Z " fill="#6F6D6D" transform="translate(122.3203125,45.74609375)"/>
<path d="M0 0 C1.26360352 -0.01160156 1.26360352 -0.01160156 2.55273438 -0.0234375 C8.30321969 -0.00573008 13.51106554 0.77825319 19.0625 2.25 C19.98160156 2.48460937 20.90070313 2.71921875 21.84765625 2.9609375 C30.39448406 5.45315144 37.12280575 9.14993238 44.375 14.25 C44.98633789 14.67740479 45.59767578 15.10480957 46.22753906 15.54516602 C49.38876304 17.82052842 51.95091413 19.95684081 54.0625 23.25 C49.98964506 23.25 48.67348844 21.63234549 45.5 19.125 C38.64048572 13.82199543 31.58836368 8.42681626 23.0625 6.25 C21.80566406 5.90582031 20.54882812 5.56164062 19.25390625 5.20703125 C12.8952676 3.80000786 6.54061508 4.07342433 0.0625 4.1875 C-2.37494347 4.22174088 -4.81244856 4.25192472 -7.25 4.27734375 C-8.31863281 4.29531006 -9.38726562 4.31327637 -10.48828125 4.33178711 C-12.9375 4.25 -12.9375 4.25 -13.9375 3.25 C-15.26344105 2.88837971 -16.59688457 2.55271961 -17.9375 2.25 C-11.82520427 0.46930806 -6.35041937 -0.05803887 0 0 Z " fill="#7B4E4F" transform="translate(82.9375,11.75)"/>
<path d="M0 0 C3.5625 0.5 3.5625 0.5 6 2.0625 C8.0873128 5.31870797 7.8540423 7.70995016 7.5625 11.5 C5.5825 12.49 5.5825 12.49 3.5625 13.5 C3.5625 14.16 3.5625 14.82 3.5625 15.5 C0.8125 15.8125 0.8125 15.8125 -2.4375 15.5 C-5.34422632 12.89924487 -6.32231128 11.30632104 -6.875 7.4375 C-6.13310953 2.45623539 -5.11666752 0.74424255 0 0 Z " fill="#F0F1F0" transform="translate(83.4375,78.5)"/>
<path d="M0 0 C2.53497373 2.51229955 5.03684644 5.03946586 7.47265625 7.6484375 C14.25657997 14.79048691 21.97597527 22.05680845 32 24 C32 24.66 32 25.32 32 26 C32.71285156 26.12117188 33.42570312 26.24234375 34.16015625 26.3671875 C38.35143538 27.10052032 42.42403253 27.82515273 46.5 29.0625 C51.28836292 30.34509721 56.06641318 30.66098318 61 31 C61 31.33 61 31.66 61 32 C42.09147936 32.59398494 24.68343329 27.83433468 10.4609375 14.8359375 C9.25866122 13.68955082 8.06327995 12.53588821 6.875 11.375 C6.30587891 10.82457031 5.73675781 10.27414063 5.15039062 9.70703125 C2.11768584 6.62607045 0.28506866 4.51079235 0 0 Z " fill="#63595A" transform="translate(25,127)"/>
<path d="M0 0 C0.66 0.33 1.32 0.66 2 1 C1.67 1.66 1.34 2.32 1 3 C13.87 3 26.74 3 40 3 C40 4.65 40 6.3 40 8 C14.26 8 -11.48 8 -38 8 C-38 7.67 -38 7.34 -38 7 C-12.59 7 12.82 7 39 7 C39 6.01 39 5.02 39 4 C25.14 4 11.28 4 -3 4 C-3 3.01 -3 2.02 -3 1 C-2.01 0.67 -1.02 0.34 0 0 Z " fill="#1D1E1F" transform="translate(113,150)"/>
<path d="M0 0 C-3.25413309 1.78781288 -6.49115675 2.76061208 -10.0625 3.75 C-20.43598439 6.89805629 -28.72136212 12.1011351 -37 19 C-37.62390625 19.51304688 -38.2478125 20.02609375 -38.890625 20.5546875 C-40.26804944 21.69395912 -41.63542958 22.84536349 -43 24 C-43.66 23.34 -44.32 22.68 -45 22 C-27.31589537 5 -27.31589537 5 -19 5 C-19 4.34 -19 3.68 -19 3 C-13.09650108 0.14346827 -6.48164653 -0.20908537 0 0 Z " fill="#846C6C" transform="translate(74,14)"/>
<path d="M0 0 C2.29377017 3.44065526 2.22906159 5.14656889 1.65625 9.15625 C-1.10000651 21.10002822 -7.46408588 36.03962234 -18 43 C-17.39243099 38.86853071 -15.04628016 35.8650791 -12.75 32.5 C-6.00076095 22.26405442 -2.38633016 12.02865608 0 0 Z " fill="#787170" transform="translate(155,93)"/>
<path d="M0 0 C-0.55429687 0.39832031 -1.10859375 0.79664062 -1.6796875 1.20703125 C-2.40414062 1.73683594 -3.12859375 2.26664062 -3.875 2.8125 C-4.59429687 3.33457031 -5.31359375 3.85664062 -6.0546875 4.39453125 C-8.71524063 6.59028896 -9.90822909 8.26049716 -10.3359375 11.70703125 C-10.48379151 20.10689106 -10.48379151 20.10689106 -6 27 C-3.39562767 28.41190564 -3.39562767 28.41190564 -1 29 C-1 29.66 -1 30.32 -1 31 C-5.22552008 30.80346418 -6.70221683 30.29778317 -9.75 27.25 C-13.64489005 21.62404771 -15.10109665 16.82225864 -14 10 C-12.16492789 5.45563688 -9.96771971 2.63869501 -5.875 -0.0625 C-3 -1 -3 -1 0 0 Z " fill="#857D7B" transform="translate(41,93)"/>
<path d="M0 0 C4.26290179 0.47365575 6.21548958 2.92238322 9 6 C11.98711462 10.48067193 11.46783939 14.74812561 11 20 C9.27881689 25.36604145 5.72468631 29.02251716 1 32 C-1.9375 32.375 -1.9375 32.375 -4 32 C-2.26884328 30.08661625 -0.75659395 28.86004152 1.5 27.5625 C5.15858669 25.27588332 6.64645877 23.06062369 8 19 C8.50794693 12.80304743 8.0020743 10.00259287 4 5 C2.88625 3.576875 2.88625 3.576875 1.75 2.125 C1.1725 1.42375 0.595 0.7225 0 0 Z " fill="#8E8682" transform="translate(130,48)"/>
<path d="M0 0 C3.37329915 1.39584792 5.04232662 2.92365611 7 6 C8.71728565 11.15185695 8.4380073 15.50562216 6.9375 20.625 C4.6770346 24.5625849 2.06439072 27.83232495 -2 30 C-4.22265625 29.65625 -4.22265625 29.65625 -6 29 C-4.906875 28.29875 -3.81375 27.5975 -2.6875 26.875 C0.85513632 24.30049304 2.63003206 22.27107652 4 18 C4.64353549 13.06890934 4.90520531 8.71823404 2 4.5 C1.34 3.675 0.68 2.85 0 2 C0 1.34 0 0.68 0 0 Z " fill="#797370" transform="translate(94,27)"/>
<path d="M0 0 C10.62460695 0.51409388 17.92047783 5.07148054 26.4375 11.0625 C27.34278442 11.6975647 27.34278442 11.6975647 28.26635742 12.34545898 C31.38900755 14.60601968 33.90397848 16.74703471 36 20 C31.92714506 20 30.61098844 18.38234549 27.4375 15.875 C18.75659467 9.18595973 10.45465833 4.37888197 0 1 C0 0.67 0 0.34 0 0 Z " fill="#6C5655" transform="translate(101,15)"/>
<path d="M0 0 C4.42350331 0.50554324 6.78071602 1.95015202 10 5 C14.06657549 10.63819887 13.89839895 16.28261335 13 23 C11.67442618 26.12347855 10.45304483 27.54695517 8 30 C7.01 30 6.02 30 5 30 C6.03047408 27.78051737 6.91596964 26.08726229 8.625 24.3125 C10.80205219 20.65109404 10.49853246 17.14975609 10 13 C8.18189302 6.58315183 5.3845734 4.45425464 0 1 C0 0.67 0 0.34 0 0 Z " fill="#857C76" transform="translate(128,92)"/>
<path d="M0 0 C3.10896795 0 5.25475199 0.41756518 7.734375 2.35546875 C12.48080931 7.65565373 12.81845374 12.82638154 12.54296875 19.765625 C11.78522434 24.27938304 10.44175793 26.07450576 7 29 C6.01 28.67 5.02 28.34 4 28 C4.639375 27.21625 5.27875 26.4325 5.9375 25.625 C9.63735976 20.91608757 9.65011273 16.86004389 9 11 C6.7399523 6.56361006 3.60473302 3.40447007 0 0 Z " fill="#6D6B6B" transform="translate(89,115)"/>
<path d="M0 0 C1.96487115 3.56188971 3.10546791 7.32413031 4.3125 11.1875 C6.04048568 16.61222043 8.0264609 21.38148405 11.1796875 26.16796875 C12.22170065 28.49513145 11.84491691 29.64779305 11 32 C-2.04428979 12.37024352 -2.04428979 12.37024352 -0.75 2.75 C-0.5025 1.8425 -0.255 0.935 0 0 Z " fill="#847E7A" transform="translate(13,97)"/>
<path d="M0 0 C8.81347662 -0.39074527 14.91154386 -0.54332866 21.8125 5.4375 C25.21019227 9.4176538 26.26313868 12.00073 26.125 17.25 C26.10695313 18.14203125 26.08890625 19.0340625 26.0703125 19.953125 C26.04710938 20.62859375 26.02390625 21.3040625 26 22 C23 20 23 20 22.41015625 17.79296875 C22.23806641 16.50326172 22.23806641 16.50326172 22.0625 15.1875 C21.0448569 9.44567635 19.2588635 6.63767604 14.5 3.1875 C9.3540881 1.4415656 4.38366484 1.76479134 -1 2 C-0.67 1.34 -0.34 0.68 0 0 Z " fill="#646160" transform="translate(37,46)"/>
<path d="M0 0 C0.33 0 0.66 0 1 0 C1.85991911 11.63757199 1.85991911 11.63757199 -1.125 16.0625 C-4.26952557 19.6637723 -7.46102055 21.73409337 -12.3125 22.2421875 C-14.60544422 22.30833012 -16.73187891 22.34929065 -19 22 C-19.66 21.34 -20.32 20.68 -21 20 C-20.26394531 19.97421875 -19.52789062 19.9484375 -18.76953125 19.921875 C-12.68309917 19.58428977 -12.68309917 19.58428977 -7.0625 17.4375 C-2.59322267 12.1556268 -0.57068101 6.84817214 0 0 Z " fill="#737172" transform="translate(61,59)"/>
<path d="M0 0 C0.66 0 1.32 0 2 0 C0.47577031 3.22866387 -1.35228813 6.1433917 -3.3125 9.125 C-6.60801953 14.24753349 -9.40763012 19.4927073 -12 25 C-12.66 24.67 -13.32 24.34 -14 24 C-12.71680266 14.90096431 -6.29599713 6.44241566 0 0 Z " fill="#847573" transform="translate(29,37)"/>
<path d="M0 0 C0.33 1.32 0.66 2.64 1 4 C0.14341797 3.76410156 0.14341797 3.76410156 -0.73046875 3.5234375 C-5.20299926 2.49190723 -9.79622999 1.94252879 -14.03515625 3.9765625 C-17.3421064 6.26544944 -19.68032796 8.70362394 -22 12 C-22.66 12 -23.32 12 -24 12 C-22.58266327 7.18105512 -19.95872889 3.98807902 -16 1 C-10.91951905 -0.61651667 -5.30163297 -0.09429782 0 0 Z " fill="#6F605E" transform="translate(130,46)"/>
<path d="M0 0 C0.886875 0.78375 1.77375 1.5675 2.6875 2.375 C7.82456112 6.12165821 13.832659 6.3786288 20 7 C17.43599223 9.56400777 16.31217985 9.32633634 12.75 9.375 C7.71630498 9.28923586 4.84058959 8.44668297 1 5 C0.34 4.01 -0.32 3.02 -1 2 C-0.67 1.34 -0.34 0.68 0 0 Z " fill="#5D5C5C" transform="translate(71,50)"/>
<path d="M0 0 C0.33 0.99 0.66 1.98 1 3 C-3.98377319 8.48215051 -10.54283707 14.87414788 -18.125 15.9375 C-19.07375 15.958125 -20.0225 15.97875 -21 16 C-17.99447987 13.66472497 -14.87396342 11.66691049 -11.625 9.6875 C-7.11344049 6.84890165 -3.56290775 3.94808696 0 0 Z " fill="#535254" transform="translate(136,134)"/>
<path d="M0 0 C2.21223082 1.73131107 2.95342877 2.82489217 3.68359375 5.5703125 C4.09386922 10.01749602 4.10618912 14.41198801 4.0625 18.875 C4.05798828 19.75414063 4.05347656 20.63328125 4.04882812 21.5390625 C4.03712337 23.69273803 4.01919069 25.84637817 4 28 C3.34 28.33 2.68 28.66 2 29 C1.93941406 27.74445313 1.87882813 26.48890625 1.81640625 25.1953125 C1.39851636 16.77108962 0.96202174 8.38333231 0 0 Z " fill="#AC9E9A" transform="translate(154,67)"/>
<path d="M0 0 C0 0.99 0 1.98 0 3 C-2.49099891 4.24549946 -4.04207737 3.99960671 -6.8125 3.875 C-11.06353982 3.81347989 -13.58124256 4.26499404 -17 7 C-17.66 6.34 -18.32 5.68 -19 5 C-12.88789007 -0.55646357 -8.07165589 -0.59642778 0 0 Z " fill="#535253" transform="translate(90,113)"/>
<path d="M0 0 C0.99 0.33 1.98 0.66 3 1 C1.79296875 2.9765625 1.79296875 2.9765625 0 5 C-6.01395445 6.26047358 -12.223529 4.71154696 -18 3 C-14.37719802 0.58479868 -12.72430863 0.81775674 -8.4375 0.9375 C-4.05816916 1.22180565 -4.05816916 1.22180565 0 0 Z " fill="#635857" transform="translate(131,121)"/>
<path d="M0 0 C4.0483548 0.50671107 5.95199296 1.69300416 8.96484375 4.37109375 C7.97484375 5.03109375 6.98484375 5.69109375 5.96484375 6.37109375 C5.454375 6.05398437 4.94390625 5.736875 4.41796875 5.41015625 C1.16269716 4.03133102 -1.76358757 3.94173645 -5.28515625 3.74609375 C-7.18007813 3.63394531 -7.18007813 3.63394531 -9.11328125 3.51953125 C-10.0775 3.47054687 -11.04171875 3.4215625 -12.03515625 3.37109375 C-8.78083091 -0.84499096 -4.94985455 -0.101997 0 0 Z " fill="#6A6969" transform="translate(48.03515625,89.62890625)"/>
<path d="M0 0 C3.15856443 0.59720756 3.92386937 0.91963989 6.25 3.375 C9.03769486 7.81788869 8.32294243 12.9585098 8 18 C7.34 18.33 6.68 18.66 6 19 C5.98582031 18.38253906 5.97164062 17.76507813 5.95703125 17.12890625 C5.57333358 10.31567998 3.72122179 5.68481853 0 0 Z " fill="#8D8B89" transform="translate(55,95)"/>
<path d="M0 0 C0.66 0.33 1.32 0.66 2 1 C1.34 1.66 0.68 2.32 0 3 C9.9 3.33 19.8 3.66 30 4 C30 4.33 30 4.66 30 5 C18.78 5 7.56 5 -4 5 C-3 2 -3 2 0 0 Z " fill="#913438" transform="translate(125,146)"/>
<path d="M0 0 C1.87558594 0.00966797 1.87558594 0.00966797 3.7890625 0.01953125 C5.09101562 0.03628906 6.39296875 0.05304687 7.734375 0.0703125 C9.05179688 0.07933594 10.36921875 0.08835937 11.7265625 0.09765625 C14.97934962 0.12122717 18.23177089 0.15413228 21.484375 0.1953125 C21.979375 1.6803125 21.979375 1.6803125 22.484375 3.1953125 C21.62827637 3.03232666 20.77217773 2.86934082 19.89013672 2.70141602 C16.52733088 2.20169584 13.38898206 2.08148104 9.9921875 2.09765625 C8.79335937 2.10087891 7.59453125 2.10410156 6.359375 2.10742188 C5.121875 2.11580078 3.884375 2.12417969 2.609375 2.1328125 C1.34867188 2.13732422 0.08796875 2.14183594 -1.2109375 2.14648438 C-4.31254886 2.1582329 -7.41406225 2.17466083 -10.515625 2.1953125 C-6.97418975 -0.00098533 -4.11895253 -0.03744502 0 0 Z " fill="#2D3030" transform="translate(80.515625,13.8046875)"/>
<path d="M0 0 C5.94 0 11.88 0 18 0 C17.67 0.66 17.34 1.32 17 2 C14.93359375 2.4140625 14.93359375 2.4140625 12.4375 2.625 C11.61121094 2.69976562 10.78492188 2.77453125 9.93359375 2.8515625 C8.97646484 2.92503906 8.97646484 2.92503906 8 3 C10.64 3.33 13.28 3.66 16 4 C16 4.33 16 4.66 16 5 C6.31912716 5.68875775 6.31912716 5.68875775 2.375 3.0625 C1.59125 2.381875 0.8075 1.70125 0 1 C0 0.67 0 0.34 0 0 Z " fill="#544F50" transform="translate(34,77)"/>
<path d="M0 0 C5.96922235 0.05002142 10.2583991 0.57791702 15.546875 3.3984375 C15.216875 4.0584375 14.886875 4.7184375 14.546875 5.3984375 C13.226875 5.0684375 11.906875 4.7384375 10.546875 4.3984375 C10.546875 3.7384375 10.546875 3.0784375 10.546875 2.3984375 C2.626875 2.8934375 2.626875 2.8934375 -5.453125 3.3984375 C-2.453125 0.3984375 -2.453125 0.3984375 0 0 Z " fill="#755552" transform="translate(79.453125,22.6015625)"/>
<path d="M0 0 C4 4 8 8 12 12 C11.67 12.99 11.34 13.98 11 15 C9.34204471 13.45036847 7.69901956 11.88475231 6.0625 10.3125 C5.14597656 9.44238281 4.22945312 8.57226562 3.28515625 7.67578125 C0.95353228 4.94558908 0.29792703 3.51807447 0 0 Z " fill="#6B6C6A" transform="translate(25,127)"/>
<path d="M0 0 C0.33 0 0.66 0 1 0 C1.02578125 0.58007812 1.0515625 1.16015625 1.078125 1.7578125 C1.58283277 8.70901493 3.73059563 13.25753607 9 18 C5.50832834 17.70902736 4.23799325 17.24460417 1.75 14.6875 C-1.63208132 9.4935894 -0.89510254 5.96735027 0 0 Z " fill="#676463" transform="translate(107,105)"/>
<path d="M0 0 C0.99 0 1.98 0 3 0 C2.566875 0.928125 2.566875 0.928125 2.125 1.875 C0.58288195 6.15866124 -0.18398547 10.52928212 -1 15 C-1.99 15 -2.98 15 -4 15 C-4.50610724 8.92671312 -3.04157942 5.22771463 0 0 Z " fill="#655E5E" transform="translate(70,119)"/>
<path d="M0 0 C2.125 0.375 2.125 0.375 4 1 C2.35 1.66 0.7 2.32 -1 3 C-1 3.66 -1 4.32 -1 5 C-2.95803507 5.05389087 -4.91648909 5.09274217 -6.875 5.125 C-7.96554688 5.14820313 -9.05609375 5.17140625 -10.1796875 5.1953125 C-13 5 -13 5 -15 3 C-13.62714844 2.92652344 -13.62714844 2.92652344 -12.2265625 2.8515625 C-11.03804688 2.77679688 -9.84953125 2.70203125 -8.625 2.625 C-7.44164063 2.55539063 -6.25828125 2.48578125 -5.0390625 2.4140625 C-1.89437681 2.29782654 -1.89437681 2.29782654 0 0 Z " fill="#473F3F" transform="translate(91,144)"/>
<path d="M0 0 C2.50905168 3.76357753 2.0695896 5.33436894 1.4921875 9.63671875 C0.78289365 13.0424551 -0.47316356 15.87994294 -2 19 C-2.33 19 -2.66 19 -3 19 C-2.37679879 12.56025419 -1.35991738 6.32427599 0 0 Z " fill="#8F8381" transform="translate(155,93)"/>
<path d="M0 0 C0.33 0.99 0.66 1.98 1 3 C-2.61867559 4.2062252 -5.92506251 4.10816918 -9.6875 4.0625 C-10.38939453 4.05798828 -11.09128906 4.05347656 -11.81445312 4.04882812 C-13.54300538 4.03706927 -15.27151365 4.01913454 -17 4 C-17.33 3.34 -17.66 2.68 -18 2 C-16.95199219 1.93941406 -15.90398438 1.87882812 -14.82421875 1.81640625 C-13.44529952 1.73198262 -12.06639395 1.64733553 -10.6875 1.5625 C-9.99720703 1.52318359 -9.30691406 1.48386719 -8.59570312 1.44335938 C-5.52838465 1.25072585 -2.93031848 0.97677283 0 0 Z " fill="#7A605F" transform="translate(53,121)"/>
<path d="M0 0 C5.40489519 1.52012677 8.98492628 5.27385218 13 9 C12.34 9.66 11.68 10.32 11 11 C9.16086305 9.5489926 7.3288247 8.08898341 5.5 6.625 C4.4790625 5.81289063 3.458125 5.00078125 2.40625 4.1640625 C1.6121875 3.44992188 0.818125 2.73578125 0 2 C0 1.34 0 0.68 0 0 Z " fill="#706565" transform="translate(124,25)"/>
<path d="M0 0 C3.63 0 7.26 0 11 0 C11.33 0.99 11.66 1.98 12 3 C9.67404054 4.16297973 8.21276769 4.16600691 5.625 4.1875 C4.46871094 4.20876953 4.46871094 4.20876953 3.2890625 4.23046875 C0.78165112 3.97801607 -0.83261902 3.25193467 -3 2 C-1 1 -1 1 0 1 C0 0.67 0 0.34 0 0 Z " fill="#444343" transform="translate(117,78)"/>
<path d="M0 0 C0.33 0 0.66 0 1 0 C1.62663185 10.91383812 1.62663185 10.91383812 -0.875 15.25 C-3 17 -3 17 -5 17 C-3 12 -3 12 -1.9375 9.625 C-0.80122035 6.44341697 -0.39377788 3.34711199 0 0 Z " fill="#828181" transform="translate(61,59)"/>
<path d="M0 0 C4.2726657 0.47474063 6.273802 2.84334968 9 6 C10.3125 8.8125 10.3125 8.8125 11 11 C10.01 11 9.02 11 8 11 C6.59431196 9.05017465 5.2704964 7.04049422 4 5 C2.68456721 3.31916921 1.35683751 1.6475884 0 0 Z " fill="#837874" transform="translate(130,48)"/>
<path d="M0 0 C-1.40191353 2.99254618 -3.03367489 5.5954611 -5 8.25 C-5.515625 8.95640625 -6.03125 9.6628125 -6.5625 10.390625 C-7.2740625 11.18726563 -7.2740625 11.18726563 -8 12 C-8.66 12 -9.32 12 -10 12 C-8.73050758 7.810675 -4.99190297 0 0 0 Z " fill="#8B7D7B" transform="translate(31,37)"/>
<path d="M0 0 C1.99609375 0.20703125 1.99609375 0.20703125 4.4375 0.8125 C9.9379909 2.05713663 15.38243819 2.59416854 21 3 C21 3.33 21 3.66 21 4 C13.06603268 4.24923458 5.7558343 3.70994772 -2 2 C-1.34 1.34 -0.68 0.68 0 0 Z " fill="#555255" transform="translate(65,155)"/>
<path d="M0 0 C0.66 0.33 1.32 0.66 2 1 C1.67 1.66 1.34 2.32 1 3 C6.94 3 12.88 3 19 3 C19 3.33 19 3.66 19 4 C11.74 4 4.48 4 -3 4 C-3 3.01 -3 2.02 -3 1 C-2.01 0.67 -1.02 0.34 0 0 Z " fill="#2C2A2A" transform="translate(113,150)"/>
<path d="M0 0 C1.1484375 1.671875 1.1484375 1.671875 2 4 C1.1015625 6.578125 1.1015625 6.578125 -0.375 9.25 C-1.09816406 10.58804688 -1.09816406 10.58804688 -1.8359375 11.953125 C-2.22007812 12.62859375 -2.60421875 13.3040625 -3 14 C-3.66 13.67 -4.32 13.34 -5 13 C-3.58192622 8.52761347 -1.88695626 4.28853694 0 0 Z " fill="#7F7473" transform="translate(151,109)"/>
<path d="M0 0 C2.92602095 1.46301048 3.09705209 3.41022764 4.1875 6.4375 C4.55230469 7.42621094 4.91710937 8.41492188 5.29296875 9.43359375 C6 12 6 12 5 14 C4.01 14.495 4.01 14.495 3 15 C2.491217 13.44033782 1.99336531 11.87710759 1.5 10.3125 C1.2215625 9.44238281 0.943125 8.57226562 0.65625 7.67578125 C0.00149195 5.00608323 -0.11831495 2.73603316 0 0 Z " fill="#967F7C" transform="translate(150,54)"/>
<path d="M0 0 C0.33 0 0.66 0 1 0 C1.35338623 2.96844435 1.5417682 5.15598218 -0.11328125 7.734375 C-1.35503168 9.20348819 -2.67337918 10.60704814 -4 12 C-4.99 11.67 -5.98 11.34 -7 11 C-6.401875 10.29875 -5.80375 9.5975 -5.1875 8.875 C-3.02259039 6.02969023 -1.50403364 3.23367233 0 0 Z " fill="#6A5F5D" transform="translate(100,132)"/>
<path d="M0 0 C0.66 0 1.32 0 2 0 C1.34 4.62 0.68 9.24 0 14 C-0.66 13.67 -1.32 13.34 -2 13 C-2.05447047 11.58376784 -2.09300508 10.16691809 -2.125 8.75 C-2.14820312 7.96109375 -2.17140625 7.1721875 -2.1953125 6.359375 C-1.9828378 3.79268059 -1.28654105 2.2083933 0 0 Z " fill="#767573" transform="translate(107,99)"/>
<path d="M0 0 C0.66 0.33 1.32 0.66 2 1 C0.76044505 4.71866485 -1.18554854 6.32283886 -4 9 C-4.66 9.66 -5.32 10.32 -6 11 C-6.66 11 -7.32 11 -8 11 C-6.52670958 5.99081256 -3.72484762 3.48192278 0 0 Z " fill="#5E5C5B" transform="translate(114,47)"/>
<path d="M0 0 C-3.25256572 1.78695177 -6.47764173 2.80825285 -10.0625 3.75 C-11.10535156 4.03359375 -12.14820313 4.3171875 -13.22265625 4.609375 C-16 5 -16 5 -19 3 C-13.09650108 0.14346827 -6.48164653 -0.20908537 0 0 Z " fill="#7F6161" transform="translate(74,14)"/>
<path d="M0 0 C0.33 0 0.66 0 1 0 C1.53093324 1.93475671 2.04942317 3.87293155 2.5625 5.8125 C2.85253906 6.89144531 3.14257812 7.97039063 3.44140625 9.08203125 C4 12 4 12 3 15 C0.03090402 11.72698081 -0.34354794 9.61934238 -0.1875 5.25 C-0.16042969 4.26515625 -0.13335937 3.2803125 -0.10546875 2.265625 C-0.07066406 1.51796875 -0.03585938 0.7703125 0 0 Z " fill="#787472" transform="translate(67,37)"/>
<path d="M0 0 C0 4.05480631 -1.54870092 5.84832975 -4 9 C-4.99 9 -5.98 9 -7 9 C-5.44499019 5.18315774 -2.96404505 2.80804268 0 0 Z " fill="#79726F" transform="translate(140,113)"/>
<path d="M0 0 C1.33617352 0.97528737 2.6688751 1.95533319 4 2.9375 C4.7425 3.48277344 5.485 4.02804688 6.25 4.58984375 C6.8275 5.05519531 7.405 5.52054688 8 6 C8 6.33 8 6.66 8 7 C5.75 7.3125 5.75 7.3125 3 7 C0.6875 4.5 0.6875 4.5 -1 2 C-0.67 1.34 -0.34 0.68 0 0 Z " fill="#646363" transform="translate(71,50)"/>
<path d="M0 0 C0.33 0.99 0.66 1.98 1 3 C-1.57784846 5.64752004 -3.91648098 7.94432065 -7 10 C-5.6062718 5.56541027 -3.39417765 3.12621626 0 0 Z " fill="#645A58" transform="translate(136,134)"/>
<path d="M0 0 C0 0.33 0 0.66 0 1 C-0.94875 1.28875 -1.8975 1.5775 -2.875 1.875 C-6.05211578 2.76825109 -6.05211578 2.76825109 -8 5 C-8.64767793 7.57061311 -8.64767793 7.57061311 -9 10 C-9.33 10 -9.66 10 -10 10 C-10.21691118 6.81863606 -10.25066255 4.56030453 -8.9375 1.625 C-6.06052441 -0.78794727 -3.62340201 -0.2734643 0 0 Z " fill="#C7C4C3" transform="translate(87,79)"/>
<path d="M0 0 C3.36720387 1.39332574 4.9859524 2.9789286 7 6 C6.67 6.66 6.34 7.32 6 8 C5.34 8 4.68 8 4 8 C0 2.58823529 0 2.58823529 0 0 Z " fill="#766862" transform="translate(94,27)"/>
<path d="M0 0 C1.49080078 0.02707031 1.49080078 0.02707031 3.01171875 0.0546875 C3.77097656 0.07789062 4.53023437 0.10109375 5.3125 0.125 C5.3125 0.455 5.3125 0.785 5.3125 1.125 C3.73163952 1.49004603 2.14766093 1.84160506 0.5625 2.1875 C-0.31921875 2.38472656 -1.2009375 2.58195312 -2.109375 2.78515625 C-4.67429028 3.12325872 -6.25841639 2.93658635 -8.6875 2.125 C-5.26655758 -0.15562828 -4.00562778 -0.09425007 0 0 Z " fill="#514E4C" transform="translate(82.6875,22.875)"/>
<path d="M0 0 C0.99386719 0.10183594 1.98773438 0.20367187 3.01171875 0.30859375 C3.77097656 0.39238281 4.53023437 0.47617188 5.3125 0.5625 C5.3125 0.8925 5.3125 1.2225 5.3125 1.5625 C3.35560341 1.78392255 1.39688048 1.9892568 -0.5625 2.1875 C-2.19832031 2.36152344 -2.19832031 2.36152344 -3.8671875 2.5390625 C-5.26324219 2.55066406 -5.26324219 2.55066406 -6.6875 2.5625 C-7.3475 1.9025 -8.0075 1.2425 -8.6875 0.5625 C-5.3763987 -0.54120043 -3.44001051 -0.36423641 0 0 Z " fill="#754F4E" transform="translate(121.6875,122.4375)"/>
<path d="M0 0 C1.99097846 2.98646769 2.94124926 5.59687262 4 9 C3.01 9 2.02 9 1 9 C-1.125 3.375 -1.125 3.375 0 0 Z " fill="#807472" transform="translate(17,111)"/>
<path d="M0 0 C3 3 3 3 3.1875 6.1875 C3.0946875 7.5796875 3.0946875 7.5796875 3 9 C2.01 9.495 2.01 9.495 1 10 C0.67 6.7 0.34 3.4 0 0 Z " fill="#A4938F" transform="translate(154,67)"/>
<path d="M0 0 C0.66 0.33 1.32 0.66 2 1 C1.34 1.66 0.68 2.32 0 3 C1.32 3.66 2.64 4.32 4 5 C1.36 5 -1.28 5 -4 5 C-3 2 -3 2 0 0 Z " fill="#A43839" transform="translate(125,146)"/>
<path d="M0 0 C2.96175123 0.61277612 4.38058783 1.25372522 7 3 C6.67 3.99 6.34 4.98 6 6 C1.125 3.375 1.125 3.375 0 0 Z " fill="#655C5B" transform="translate(117,21)"/>
<path d="M0 0 C3.3 0 6.6 0 10 0 C10.33 0.99 10.66 1.98 11 3 C7.31733897 2.40049704 3.65456815 1.75241109 0 1 C0 0.67 0 0.34 0 0 Z " fill="#494242" transform="translate(92,14)"/>
<path d="M0 0 C2.4375 0.375 2.4375 0.375 5 1 C5.33 1.66 5.66 2.32 6 3 C3.69 3 1.38 3 -1 3 C-0.67 2.01 -0.34 1.02 0 0 Z " fill="#6A6366" transform="translate(115,150)"/>
<path d="M0 0 C0.33 1.32 0.66 2.64 1 4 C-0.65 5.32 -2.3 6.64 -4 8 C-3.40072174 4.64404172 -2.15377564 2.62198774 0 0 Z " fill="#6F6764" transform="translate(141,128)"/>
<path d="M0 0 C-2.35968744 2.09749995 -3.54616994 2.96905704 -6.75 3.1875 C-7.86375 3.0946875 -7.86375 3.0946875 -9 3 C-6.07868595 -0.19953443 -4.37453972 -1.45817991 0 0 Z " fill="#7E7475" transform="translate(135,77)"/>
<path d="M0 0 C3.73639216 1.24546405 4.18756513 2.63404953 6 6 C3.13275314 5.42655063 2.1385485 5.1385485 0 3 C0 2.01 0 1.02 0 0 Z " fill="#857B78" transform="translate(30,71)"/>
</svg>
